# xmcd
#
# Track frame offsets: 
#        150
#        12674
#        26383
#        40310
#        54817
#        68854
#        82741
#        96969
#        110530
#        124214
#        136754
#        148715
#        163006
#        176103
#        190366
#        203227
#        217372
#        231946
#        246513
#        258964
#        270198
#
# Disc length: 3759 seconds
#
# Revision: 1
# Processed by: cddbd v1.5.2PL0 Copyright (c) Steve Scherf et al.
# Submitted via: ExactAudioCopy v1.0b3
#
DISCID=330ead15
DTITLE=Gene Autry - Texas Blues
DYEAR=2005
DGENRE=Western
TTITLE0=I'd Love A Home In The Mountains (& Jimmy Long)  (1934)
TTITLE1=When The Moon Shines On The Mississippi Valley (& Jimmy Long) 
TTITLE1=(1934)
TTITLE2=By The Stump Of The Old Pine Tree (& Jimmy Long)  (1934)
TTITLE3=Seven More Days (& Jimmy Long)  (1934)
TTITLE4=My Shy Little Blue Bonnet Girl (& Jimmy Long)  (1934)
TTITLE5=Angel Boy (& Jimmy Long)  (1935)
TTITLE6=Alone With My Sorrows (& Jimmy Long)  (1932)
TTITLE7=Your Voice Is Ringing  (1933)
TTITLE8=Railroad Boomer  (1929)
TTITLE9=In The Shadow Of The Pine  (1930)
TTITLE10=Texas Blues  (1930)
TTITLE11=Mean Mama Blues  (1931)
TTITLE12=Money Ain't No Use Anyway  (1931)
TTITLE13=That Ramshackle Shack  (1932)
TTITLE14=I'm A Railroad Man (Waiting On A Weary Train)  (1931)
TTITLE15=Black Bottom Blues  (1932)
TTITLE16=Kentucky Lullaby  (1932)
TTITLE17=The Old Folks Back Home (& Jimmy Long)  (1933)
TTITLE18=That Old Feather Bed On The Farm  (1933)
TTITLE19=I Hate To Say Goodbye To The Prairie (& Jimmy Long)  (1937)
TTITLE20=Ridin' All Day  (1936)
EXTD=
EXTT0=
EXTT1=
EXTT2=
EXTT3=
EXTT4=
EXTT5=
EXTT6=
EXTT7=
EXTT8=
EXTT9=
EXTT10=
EXTT11=
EXTT12=
EXTT13=
EXTT14=
EXTT15=
EXTT16=
EXTT17=
EXTT18=
EXTT19=
EXTT20=
PLAYORDER=
